:SAMPLES-PER-SECOND 30
:FULLY-SPECIFIED
:DEGREES
1112
root  9.23065 38.7683 13.6251 -177.866 62.6985 173.029
RightUpLeg  -26.5057 -34.8282 -6.05162
RightLeg  34.7641 -13.1981 -9.91554
RightFoot  -7.24536 -0.236299 5.22628
RightToes  0.000481921 0.542163 -0.142578
Spine  34.6248 3.7904 12.0014
Spine1  4.91623 12.5216 -20.7132
HEad  -21.4455 -30.6015 19.8537
LeftShoulder1  8.20786 -13.8415 -41.0112
LeftArm  -10.7392 -0.334501 -25.5611
LeftForeArm  -173.543 -55.8198 -166.581
LeftHand  -0.25398 0.0180481 5.50724
RightShoulder  3.01152 11.0097 13.8538
RightArm  23.1698 36.1089 19.0558
RightForeArm  43.0319 49.8269 10.0154
RightHand  0.943264 6.63636 8.61086
LeftUpLeg  -31.4408 12.3553 -2.61505
LeftLeg  21.2436 -8.04473 -3.11361
LeftFoot  3.69427 0.407767 -3.26015
LeftToes  1.06245e-005 4.65869e-005 -8.65517e-006
1113
root  9.25391 38.8946 13.448 -178.799 65.1497 173.39
RightUpLeg  -24.6083 -33.7888 -6.56475
RightLeg  33.041 -12.2325 -8.68662
RightFoot  -6.66632 -0.244668 4.88209
RightToes  0.000481921 0.542163 -0.142578
Spine  33.6707 3.71016 11.5535
Spine1  5.17947 12.2672 -20.5491
HEad  -19.3638 -28.6435 18.5683
LeftShoulder1  8.21049 -13.9547 -40.7368
LeftArm  -9.44801 -1.56989 -26.1579
LeftForeArm  -173.245 -56.0995 -166.465
LeftHand  -0.25398 0.0180481 5.50724
RightShoulder  3.02741 10.7366 14.4137
RightArm  15.9378 37.4874 18.6662
RightForeArm  46.6212 51.0952 10.2857
RightHand  0.880545 5.8817 8.61861
LeftUpLeg  -29.4944 12.9651 -1.73073
LeftLeg  21.0539 -6.27821 -2.33803
LeftFoot  3.20231 0.368115 -3.03806
LeftToes  1.06245e-005 4.65869e-005 -8.65517e-006
1114
root  9.32933 39.1212 13.2559 -179.5 67.7499 173.982
RightUpLeg  -22.1546 -33.3479 -6.8929
RightLeg  30.1506 -10.757 -6.92346
RightFoot  -5.76912 -0.256387 4.46041
RightToes  0.000481921 0.542163 -0.142578
Spine  32.3284 3.56775 11.0634
Spine1  5.1556 11.7634 -20.218
HEad  -16.9924 -26.2217 17.2469
LeftShoulder1  8.184 -14.0561 -40.3386
LeftArm  -8.25069 -2.95748 -26.8851
LeftForeArm  -173.081 -56.3235 -166.365
LeftHand  -0.25398 0.0180481 5.50724
RightShoulder  3.20697 10.8088 15.6654
RightArm  7.61735 38.2489 18.4244
RightForeArm  53.0308 53.9073 11.0919
RightHand  0.845662 5.1001 8.9325
LeftUpLeg  -26.8859 13.9137 -0.780008
LeftLeg  19.8122 -4.77063 -1.56217
LeftFoot  3.12433 0.35998 -2.98613
LeftToes  1.06245e-005 4.65869e-005 -8.65517e-006
1115
root  9.46191 39.417 13.059 179.765 70.4939 174.578
RightUpLeg  -19.1204 -33.1466 -7.26898
RightLeg  26.381 -8.88902 -5.00954
RightFoot  -4.59257 -0.274921 4.12818
RightToes  0.000481921 0.542163 -0.142578
Spine  30.8121 3.40271 10.5817
Spine1  4.91585 11.1499 -19.7725
HEad  -14.3044 -23.4468 15.9746
LeftShoulder1  8.17347 -14.2299 -39.8497
LeftArm  -7.32478 -4.46187 -27.67
LeftForeArm  -174.78 -57.1621 -165.793
LeftHand  -0.25398 0.0180481 5.50724
RightShoulder  3.52535 11.0373 17.6684
RightArm  -1.99396 38.1187 19.063
RightForeArm  58.4462 58.8587 13.3919
RightHand  0.761272 4.12233 8.9309
LeftUpLeg  -23.5796 15.1674 0.25958
LeftLeg  17.6428 -3.45462 -0.995811
LeftFoot  3.35326 0.37238 -3.04596
LeftToes  1.06245e-005 4.65869e-005 -8.65517e-006
1116
root  9.63813 39.7278 12.8789 178.809 73.3672 174.923
RightUpLeg  -15.8135 -32.5541 -7.77174
RightLeg  22.2538 -7.08755 -3.36717
RightFoot  -3.22537 -0.302038 3.94477
RightToes  0.000481921 0.542163 -0.142578
Spine  29.1777 3.31635 9.95305
Spine1  4.56797 10.4533 -18.8181
HEad  -11.286 -20.4767 14.3389
LeftShoulder1  8.22161 -14.4878 -39.4757
LeftArm  -6.96259 -5.94164 -28.4662
LeftForeArm  -178.294 -58.7737 -164.604
LeftHand  -0.25398 0.0180481 5.50724
RightShoulder  3.82466 10.9997 19.966
RightArm  -11.5209 37.6981 20.596
RightForeArm  60.3897 65.262 18.1355
RightHand  0.599631 2.24084 8.84614
LeftUpLeg  -19.7087 15.439 1.86533
LeftLeg  14.8785 -0.947834 -0.94328
LeftFoot  3.74946 0.389852 -3.11516
LeftToes  1.06245e-005 4.65869e-005 -8.65517e-006
1117
root  9.83766 39.9988 12.7284 177.698 76.1534 174.846
RightUpLeg  -12.6732 -29.9211 -8.61635
RightLeg  18.4226 -7.22132 -2.01219
RightFoot  -1.8643 -0.327742 3.79835
RightToes  0.000481921 0.542163 -0.142578
Spine  27.2374 3.20944 9.11559
Spine1  4.26285 9.54501 -17.2389
HEad  -8.1557 -17.2243 12.26
LeftShoulder1  8.25905 -14.7673 -39.0044
LeftArm  -7.36953 -7.34723 -29.4659
LeftForeArm  178.985 -60.4187 -163.361
LeftHand  -0.25398 0.0180481 5.50724
RightShoulder  4.02682 10.7443 21.9831
RightArm  -18.679 37.9424 23.2285
RightForeArm  62.0653 71.2721 26.0102
RightHand  0.346952 0.38524 6.98293
LeftUpLeg  -15.8664 13.7346 3.91145
LeftLeg  11.9984 3.46908 -1.46063
LeftFoot  4.12189 0.415379 -3.24381
LeftToes  1.06245e-005 4.65869e-005 -8.65517e-006
1118
root  10.045 40.202 12.6051 176.713 78.6293 174.592
RightUpLeg  -9.90024 -23.6921 -9.90934
RightLeg  15.2608 -11.1237 -0.649264
RightFoot  -0.722702 -0.349346 3.70287
RightToes  0.000481921 0.542163 -0.142578
Spine  25.0358 2.91544 8.15407
Spine1  4.01209 8.32269 -15.211
HEad  -5.19533 -13.5898 10.0543
LeftShoulder1  8.21909 -15.0435 -38.1525
LeftArm  -8.38438 -8.71723 -30.7704
LeftForeArm  178.76 -61.1543 -162.85
LeftHand  -0.25398 0.0180481 5.50724
RightShoulder  4.21326 10.5999 23.6872
RightArm  -23.6532 38.8179 26.7091
RightForeArm  71.4416 76.7896 41.081
RightHand  0.181525 -0.363243 4.31795
LeftUpLeg  -12.727 11.6381 5.5064
LeftLeg  9.55705 7.84265 -2.08632
LeftFoot  4.28565 0.450431 -3.47242
LeftToes  1.06245e-005 4.65869e-005 -8.65517e-006
1119
root  10.2468 40.3305 12.5105 175.752 80.7993 174.309
RightUpLeg  -7.9774 -18.7237 -10.4948
RightLeg  12.8846 -13.9204 0.281497
RightFoot  0.0257186 -0.375117 3.76785
RightToes  0.000481921 0.542163 -0.142578
Spine  23.0711 2.47948 6.8987
Spine1  3.6975 6.80505 -12.5291
HEad  -2.58881 -9.802 7.91868
LeftShoulder1  8.14449 -15.2906 -37.2065
LeftArm  -9.59054 -10.1777 -32.1207
LeftForeArm  179.738 -60.8215 -163.159
LeftHand  -0.25398 0.0180481 5.50724
RightShoulder  4.38452 10.544 25.0954
RightArm  -27.1627 39.7616 30.4005
RightForeArm  101.487 80.7813 75.7787
RightHand  0.120173 -0.494938 2.97973
LeftUpLeg  -10.3442 10.4765 6.4974
LeftLeg  8.07978 10.8791 -2.45139
LeftFoot  4.15262 0.478306 -3.70104
LeftToes  1.06245e-005 4.65869e-005 -8.65517e-006
1120
root  10.4281 40.387 12.4502 173.881 82.8411 173.274
RightUpLeg  -6.65905 -16.3543 -10.6781
RightLeg  11.6561 -14.1602 0.722195
RightFoot  0.277841 -0.401926 3.96708
RightToes  0.000481921 0.542163 -0.142578
Spine  21.6814 2.08889 5.07557
Spine1  3.34641 5.12806 -8.94311
HEad  -0.477562 -6.37799 6.04635
LeftShoulder1  8.07909 -15.4185 -36.5865
LeftArm  -10.6204 -12.0831 -33.2322
LeftForeArm  -179.827 -60.1547 -163.633
LeftHand  -0.25398 0.0180481 5.50724
RightShoulder  4.42278 10.3117 25.9323
RightArm  -28.8718 40.7355 34.4845
RightForeArm  138.93 79.7132 118.082
RightHand  0.0265113 -0.158752 0.703797
LeftUpLeg  -8.48931 10.4712 7.07945
LeftLeg  7.79858 12.6098 -2.40663
LeftFoot  3.67431 0.498295 -3.94993
LeftToes  1.06245e-005 4.65869e-005 -8.65517e-006
1121
root  10.5742 40.3691 12.4222 170.507 84.8886 170.881
RightUpLeg  -5.97661 -15.9091 -10.6631
RightLeg  11.818 -12.4358 0.692121
RightFoot  -0.0350864 -0.40631 4.09938
RightToes  0.000481921 0.542163 -0.142578
Spine  20.7305 1.77027 3.03085
Spine1  3.30159 3.52459 -5.02814
HEad  1.08764 -3.72174 4.81001
LeftShoulder1  7.99808 -15.4008 -36.2087
LeftArm  -11.3823 -14.7458 -34.0443
LeftForeArm  -179.678 -59.9087 -163.802
LeftHand  -0.25398 0.0180481 5.50724
RightShoulder  4.38455 10.0224 26.3522
RightArm  -28.9572 41.4395 38.9828
RightForeArm  155.678 75.7314 139.779
RightHand  -0.138287 0.306655 -2.87554
LeftUpLeg  -7.19586 11.9261 7.42586
LeftLeg  8.88246 12.8962 -1.83627
LeftFoot  2.65528 0.52705 -4.42813
LeftToes  1.06245e-005 4.65869e-005 -8.65517e-006
1122
root  10.6644 40.2621 12.4126 164.076 87.0479 165.665
RightUpLeg  -5.91922 -16.6366 -10.2432
RightLeg  13.41 -9.39528 0.123999
RightFoot  -0.913088 -0.38241 4.11959
RightToes  0.000481921 0.542163 -0.142578
Spine  20.2658 1.40336 1.62724
Spine1  3.81361 2.19114 -1.78472
HEad  2.20273 -1.78509 4.2748
LeftShoulder1  7.93391 -15.3894 -35.9026
LeftArm  -12.1482 -17.9083 -34.4065
LeftForeArm  -179.065 -60.1435 -163.707
LeftHand  -0.25398 0.0180481 5.50724
RightShoulder  4.52594 10.1449 27.1197
RightArm  -28.4183 41.0343 42.4894
RightForeArm  162.416 70.5537 151.542
RightHand  -0.293919 0.278453 -6.11223
LeftUpLeg  -6.56223 15.9115 7.73604
LeftLeg  11.5932 10.6821 -0.535053
LeftFoot  0.91223 0.54437 -5.12634
LeftToes  1.06245e-005 4.65869e-005 -8.65517e-006
